<?xml version="1.0" encoding="iso-8859-1"?>
<!-- Generator: Adobe Illustrator 19.0.0, SVG Export Plug-In . SVG Version: 6.00 Build 0)  -->
<svg version="1.1" id="Layer_1" xmlns="http://www.w3.org/2000/svg" xmlns:xlink="http://www.w3.org/1999/xlink" x="0px" y="0px"
	 viewBox="0 0 488.8 488.8" style="enable-background:new 0 0 488.8 488.8;" xml:space="preserve">
<path style="fill:#676B6B;" d="M488,352.4c0,17.6-14.4,32-32,32H32c-17.6,0-32-14.4-32-32V126c0-17.6,14.4-32,32-32h424.8
	c17.6,0,32,14.4,32,32v226.4H488z"/>
<path style="fill:#5E5E5E;" d="M488,362.8c0,17.6-14.4,32-32,32H32c-17.6,0-32-14.4-32-32V136.4c0-17.6,14.4-32,32-32h424.8
	c17.6,0,32,14.4,32,32v226.4H488z"/>
<path style="fill:#303333;" d="M0,251.6v111.2c0,17.6,14.4,32,32,32h424.8c17.6,0,32-14.4,32-32V251.6H0z"/>
<path style="fill:#4D4F4F;" d="M0,136.4c0-17.6,14.4-32,32-32h424.8c17.6,0,32,14.4,32,32v226.4c0,17.6-14.4,32-32,32"/>
<path style="fill:#020202;" d="M456,394c17.6,0,32-14.4,32-32V251.6H204L456,394z"/>
<g>
	<path style="fill:#FFFFFF;" d="M62.4,202.8H52c-0.8,0-0.8,0-1.6,0l-20,10.4c-0.8,0.8-1.6,1.6-1.6,3.2l2.4,9.6
		c0,0.8,0.8,1.6,1.6,1.6s1.6,0,2.4,0l12-6.4v74.4c0,1.6,1.6,3.2,3.2,3.2h12c1.6,0,3.2-1.6,3.2-3.2V206
		C65.6,204.4,64,202.8,62.4,202.8z"/>
	<path style="fill:#FFFFFF;" d="M125.6,201.2c-21.6,0-34.4,19.2-34.4,49.6s12.8,49.6,32.8,49.6c21.6,0,34.4-18.4,34.4-50.4
		C158.4,219.6,146.4,201.2,125.6,201.2z M124.8,285.2c-9.6,0-15.2-12.8-15.2-33.6s6.4-35.2,16-35.2c13.6,0,15.2,21.6,15.2,33.6
		C140.8,263.6,138.4,285.2,124.8,285.2z"/>
	<path style="fill:#FFFFFF;" d="M224.8,247.6c10.4-6.4,12-16,12-20.8c0-12-8.8-24.8-29.6-24.8c-17.6,0-31.2,11.2-31.2,27.2
		c0,8,4,15.2,11.2,20.8c-9.6,5.6-15.2,14.4-15.2,24.8c0,13.6,11.2,27.2,33.6,27.2c19.2,0,33.6-12,33.6-29.6
		C240,261.2,235.2,253.2,224.8,247.6z M207.2,215.6c11.2,0,12.8,8.8,12.8,12c0,8-7.2,12-11.2,13.6c-12.8-3.2-14.4-8.8-14.4-13.6
		C194.4,222,198.4,215.6,207.2,215.6z M207.2,286c-4.8,0-8.8-1.6-12-4.8c-2.4-2.4-4-6.4-3.2-9.6c0-7.2,4.8-12.8,13.6-16
		c12,3.2,16.8,8.8,16.8,16.8C222.4,280.4,216,286,207.2,286z"/>
</g>
<g>
	<path style="fill:#E6EDED;" d="M48,253.2v43.2c0,1.6,1.6,3.2,3.2,3.2h12c1.6,0,3.2-1.6,3.2-3.2v-43.2H48z"/>
	<path style="fill:#E6EDED;" d="M140.8,253.2c0,12.8-3.2,32-15.2,32c-9.6,0-15.2-12-15.2-32H92c0,29.6,12.8,47.2,32,47.2
		c20.8,0,33.6-17.6,34.4-47.2H140.8z"/>
	<path style="fill:#E6EDED;" d="M173.6,273.2c0,13.6,11.2,27.2,33.6,27.2c19.2,0,33.6-12,33.6-29.6c0-7.2-2.4-13.6-8-18.4h-50.4
		C176,258.8,173.6,265.2,173.6,273.2z M204.8,255.6c12,3.2,16.8,8.8,16.8,16.8s-6.4,13.6-15.2,13.6c-4.8,0-8.8-1.6-12-4.8
		c-2.4-2.4-4-6.4-3.2-9.6C192,264.4,196.8,258.8,204.8,255.6z"/>
</g>
<path style="fill:#242626;" d="M357.6,318.8c0,12.8-10.4,23.2-23.2,23.2h-45.6c-12.8,0-23.2-10.4-23.2-23.2V206
	c0-12.8,10.4-23.2,23.2-23.2h45.6c12.8,0,23.2,10.4,23.2,23.2V318.8z"/>
<path style="fill:#E6EDED;" d="M357.6,307.6c0,12.8-10.4,23.2-23.2,23.2h-45.6c-12.8,0-23.2-10.4-23.2-23.2V194.8
	c0-12.8,10.4-23.2,23.2-23.2h45.6c12.8,0,23.2,10.4,23.2,23.2V307.6z"/>
<path style="fill:#FFFFFF;" d="M333.6,170.8H288c-12.8,0-23.2,10.4-23.2,23.2v58.4h92.8v-57.6C357.6,182,346.4,170.8,333.6,170.8z"
	/>
<path style="fill:#070707;" d="M312,201.2c-21.6,0-34.4,19.2-34.4,49.6s12.8,49.6,32.8,49.6c21.6,0,34.4-18.4,34.4-50.4
	C344.8,219.6,332,201.2,312,201.2z M311.2,285.2c-9.6,0-15.2-12.8-15.2-33.6s6.4-35.2,16-35.2c13.6,0,15.2,21.6,15.2,33.6
	C326.4,263.6,324.8,285.2,311.2,285.2z"/>
<path style="fill:#575B5B;" d="M344.8,252.4c0-0.8,0-1.6,0-2.4c0-30.4-12-48.8-32.8-48.8c-21.6,0-34.4,19.2-34.4,49.6
	c0,0.8,0,0.8,0,1.6H296v-0.8c0-20.8,6.4-35.2,16-35.2c13.6,0,15.2,21.6,15.2,33.6c0,0.8,0,1.6,0,2.4H344.8z"/>
<path style="fill:#242626;" d="M455.2,318.8c0,12.8-10.4,23.2-23.2,23.2h-45.6c-12.8,0-23.2-10.4-23.2-23.2V206
	c0-12.8,10.4-23.2,23.2-23.2H432c12.8,0,23.2,10.4,23.2,23.2V318.8z"/>
<path style="fill:#E6EDED;" d="M455.2,307.6c0,12.8-10.4,23.2-23.2,23.2h-45.6c-12.8,0-23.2-10.4-23.2-23.2V194.8
	c0-12.8,10.4-23.2,23.2-23.2H432c12.8,0,23.2,10.4,23.2,23.2V307.6z"/>
<path style="fill:#FFFFFF;" d="M432,170.8h-45.6c-12.8,0-23.2,10.4-23.2,23.2v58.4H456v-57.6C455.2,182,444.8,170.8,432,170.8z"/>
<path style="fill:#070707;" d="M409.6,201.2c-21.6,0-34.4,19.2-34.4,49.6s12.8,49.6,32.8,49.6c21.6,0,34.4-18.4,34.4-50.4
	C442.4,219.6,430.4,201.2,409.6,201.2z M408.8,285.2c-9.6,0-15.2-12.8-15.2-33.6s6.4-35.2,16-35.2c13.6,0,15.2,21.6,15.2,33.6
	C424.8,263.6,422.4,285.2,408.8,285.2z"/>
<path style="fill:#575B5B;" d="M442.4,252.4c0-0.8,0-1.6,0-2.4c0-30.4-12-48.8-32.8-48.8c-21.6,0-34.4,19.2-34.4,49.6
	c0,0.8,0,0.8,0,1.6h18.4v-0.8c0-20.8,6.4-35.2,16-35.2c13.6,0,15.2,21.6,15.2,33.6c0,0.8,0,1.6,0,2.4H442.4z"/>
<g>
</g>
<g>
</g>
<g>
</g>
<g>
</g>
<g>
</g>
<g>
</g>
<g>
</g>
<g>
</g>
<g>
</g>
<g>
</g>
<g>
</g>
<g>
</g>
<g>
</g>
<g>
</g>
<g>
</g>
</svg>
